<?xml version="1.0" encoding="utf-8"?>
<!-- Generator: Adobe Illustrator 26.4.1, SVG Export Plug-In . SVG Version: 6.00 Build 0)  -->
<svg version="1.1" id="Слой_1" xmlns="http://www.w3.org/2000/svg" xmlns:xlink="http://www.w3.org/1999/xlink" x="0px" y="0px"
	 viewBox="0 0 688.1 197.7" style="enable-background:new 0 0 688.1 197.7;" xml:space="preserve">
<style type="text/css">
	.st0{fill:#1B1C1E;}
	.st1{fill:#4153DB;}
</style>
<g>
	<g>
		<path class="st0" d="M261.5,82.3V47.7l14.1-14.9h28.2v49.6h-9.4V67.5H271v14.8H261.5z M294.5,57.6V42.7h-14.1l-9.4,10v5H294.5z"/>
		<path class="st0" d="M315.2,82.3l-4.6-4.9V37.8l4.6-5h33l4.6,5v9.8h-9.4v-5H320v29.8h23.5v-4.9h9.4v9.9l-4.6,4.9H315.2z"/>
		<path class="st0" d="M373.4,82.3V42.7h-16.5v-9.9h42.3v9.9h-16.4v39.7H373.4z"/>
		<path class="st0" d="M403.9,82.3V32.7h37.7l4.6,5v24.8l-4.6,5h-28.2v14.8H403.9z M436.9,57.6V42.7h-23.5v14.9H436.9z"/>
		<path class="st0" d="M451.6,82.3V47.7l14.1-14.9h28.2v49.6h-9.4V67.5h-23.5v14.8H451.6z M484.6,57.6V42.7h-14.1l-9.4,10v5H484.6z"
			/>
		<path class="st0" d="M500,82.3V67.5l9.4-9.9l-9.4-9.9V32.7h9.4v10l9.4,9.9h4.7l9.4-9.9v-10h9.4v14.9l-9.4,9.9l9.4,9.9v14.8H533
			v-9.9l-9.4-9.8h-4.7l-9.4,9.8v9.9H500z"/>
		<path class="st0" d="M547.7,82.3V47.7l14.1-14.9H590v49.6h-9.4V67.5h-23.5v14.8H547.7z M580.6,57.6V42.7h-14.1l-9.4,10v5H580.6z"
			/>
		<path class="st0" d="M596.7,82.3V32.7h9.4v19.9h23.5V32.7h9.4v49.6h-9.4V62.6h-23.5v19.8H596.7z"/>
		<path class="st0" d="M645.8,82.3V32.7h9.4v14.9h28.2l4.6,5v24.8l-4.6,4.9H645.8z M678.7,72.4V57.6h-23.5v14.8H678.7z"/>
		<path class="st0" d="M299.9,165v-9.9h-37.7v-49.6h9.4v39.7h23.5v-39.7h9.4v39.7h4.8V165H299.9z"/>
		<path class="st0" d="M314.7,155.1v-49.6h9.4v33l23.5-33h9.4v49.6h-9.4V122l-23.5,33.1H314.7z"/>
		<path class="st0" d="M386.6,105.5V98h9.4v7.4h18.8l4.7,5v32.3l-4.7,4.9H396v7.4h-9.4v-7.4h-18.9l-4.6-4.9v-32.3l4.6-5H386.6z
			 M386.6,137.8v-22.4h-14.1v22.4H386.6z M410.2,137.8v-22.4H396v22.4H410.2z"/>
		<path class="st0" d="M425.6,155.1v-49.6h37.7l4.6,5v24.8l-4.6,5H435v14.8H425.6z M458.5,130.4v-14.9H435v14.9H458.5z"/>
		<path class="st0" d="M478.6,155.1l-4.6-4.9v-39.7l4.6-5h33l4.6,5v39.7l-4.6,4.9H478.6z M506.9,145.2v-29.8h-23.5v29.8H506.9z"/>
		<path class="st0" d="M523,155.1v-49.6h37.7l4.6,5v14.9l-4.6,5l4.6,5v14.9l-4.6,4.9H523z M555.9,125.4v-10h-23.5v10H555.9z
			 M555.9,145.2v-9.8h-23.5v9.8H555.9z"/>
		<path class="st0" d="M571.3,155.1v-34.6l14.1-14.9h28.2v49.6h-9.4v-14.8h-23.5v14.8H571.3z M604.3,130.4v-14.9h-14.1l-9.4,10v5
			H604.3z"/>
		<path class="st0" d="M620.4,155.1v-9.9l4.6-4.9l-4.6-5v-24.8l4.6-5h37.7v49.6h-9.4v-14.8h-14.1l-9.4,9.9v4.9H620.4z M653.3,130.4
			v-14.9h-23.5v14.9H653.3z"/>
	</g>
	<g>
		<g>
			<ellipse class="st1" cx="115.1" cy="169.1" rx="27.2" ry="28.6"/>
			<polygon class="st1" points="145.4,105 215.7,45.6 184.1,12.5 127,90.9 137.3,0 92.8,0 103.6,90.8 47.9,14.3 47.8,14.2 
				47.8,14.2 46.6,12.5 15.1,45.6 84.5,105 0,93.7 0,140.5 115.1,124.5 115.1,124.5 230.1,140.6 230.1,93.6 			"/>
		</g>
	</g>
</g>
</svg>
